<svg width="23" height="23" viewBox="0 0 23 23" fill="none" xmlns="http://www.w3.org/2000/svg">
<path d="M18.8986 20.2463C16.9041 21.9309 14.3166 23 11.5 23C7.30878 23 3.62963 20.691 1.63515 17.3219L2.38184 13.8799L5.69159 13.2654C6.45976 15.7451 8.77768 17.5645 11.5 17.5645C12.8206 17.5645 14.0471 17.1467 15.0578 16.4055L18.2383 16.8906L18.8986 20.2463Z" fill="#59C36A"/>
<path d="M18.8986 20.2463L18.2383 16.8906L15.0578 16.4055C14.0471 17.1467 12.8207 17.5644 11.5 17.5644V23C14.3166 23 16.9041 21.9308 18.8986 20.2463Z" fill="#00A66C"/>
<path d="M5.43555 11.5C5.43555 12.1199 5.52988 12.7129 5.6916 13.2654L1.63516 17.3219C0.624414 15.6238 0 13.6293 0 11.5C0 9.37067 0.624414 7.37618 1.63516 5.67813L4.89078 6.23844L5.6916 9.73458C5.52988 10.2871 5.43555 10.88 5.43555 11.5Z" fill="#FFDA2D"/>
<path d="M23 11.5C23 15.0039 21.3784 18.1439 18.8986 20.2463L15.0578 16.4055C15.8394 15.8394 16.4998 15.0847 16.9311 14.1953H11.5C11.1226 14.1953 10.8262 13.8988 10.8262 13.5215V9.47852C10.8262 9.10113 11.1226 8.80469 11.5 8.80469H22.1375C22.4609 8.80469 22.7439 9.03374 22.7979 9.35718C22.9326 10.058 23 10.7857 23 11.5Z" fill="#4086F4"/>
<path d="M16.9311 14.1953C16.4998 15.0847 15.8394 15.8394 15.0579 16.4055L18.8986 20.2463C21.3784 18.1439 23 15.0039 23 11.5C23 10.7857 22.9326 10.058 22.7978 9.35718C22.7439 9.03374 22.4609 8.80469 22.1375 8.80469H11.5V14.1953H16.9311Z" fill="#376AED"/>
<path d="M19.0873 3.21187C19.1008 3.40054 19.0199 3.57578 18.8986 3.7105L16.0146 6.58101C15.7856 6.82359 15.4082 6.85054 15.1387 6.64839C14.074 5.85332 12.8206 5.43555 11.5 5.43555C8.77768 5.43555 6.45976 7.25484 5.69159 9.73457L1.63515 5.67812C3.62963 2.30898 7.30878 0 11.5 0C14.1818 0 16.7963 0.988281 18.8447 2.71324C18.993 2.83457 19.0738 3.0232 19.0873 3.21187Z" fill="#FF7F23"/>
<path d="M15.1387 6.64839C15.4082 6.85059 15.7855 6.82359 16.0146 6.58101L18.8986 3.7105C19.0199 3.57578 19.1008 3.40059 19.0873 3.21187C19.0737 3.02315 18.9929 2.83457 18.8447 2.71324C16.7963 0.988281 14.1818 0 11.5 0V5.43555C12.8207 5.43555 14.074 5.85332 15.1387 6.64839Z" fill="#F03800"/>
</svg>
